<svg width="173" height="28" viewBox="0 0 173 28" fill="none" xmlns="http://www.w3.org/2000/svg">
<path d="M0 26.8885V0H4.23211V23.2766H15.615V26.8885H0Z" fill="#2D5B9F"/>
<path d="M23.2627 27.3993C22.1195 27.3993 21.098 27.1561 20.198 26.6696C19.3224 26.1832 18.6292 25.5021 18.1185 24.6265C17.6077 23.7509 17.3523 22.7294 17.3523 21.5619C17.3523 19.3972 18.3009 17.7311 20.198 16.5636C22.1195 15.3718 25.172 14.5449 29.3554 14.0827C29.3311 13.3044 29.2095 12.5869 28.9906 11.9302C28.7717 11.2735 28.3825 10.7505 27.8231 10.3614C27.288 9.9479 26.5219 9.74116 25.5246 9.74116C24.4788 9.74116 23.4694 9.9479 22.4965 10.3614C21.5236 10.7749 20.5993 11.2492 19.7237 11.7842L18.1549 8.93852C18.8603 8.50071 19.6386 8.08723 20.4899 7.69807C21.3412 7.28459 22.2533 6.95623 23.2262 6.71301C24.1991 6.44546 25.2085 6.31169 26.2543 6.31169C27.9326 6.31169 29.3068 6.6522 30.377 7.33323C31.4472 7.98994 32.2377 8.95068 32.7484 10.2154C33.2835 11.4802 33.5511 13.0125 33.5511 14.8124V26.8885H30.1216L29.7932 24.59H29.6473C28.7474 25.3684 27.7623 26.0372 26.6921 26.5966C25.6219 27.1317 24.4788 27.3993 23.2627 27.3993ZM24.5396 24.0428C25.4152 24.0428 26.23 23.8482 26.984 23.459C27.738 23.0456 28.5285 22.4497 29.3554 21.6713V16.7825C27.3853 17.0014 25.8165 17.3298 24.649 17.7676C23.4816 18.1811 22.6424 18.6797 22.1317 19.2634C21.6452 19.8228 21.402 20.4795 21.402 21.2335C21.402 22.2308 21.706 22.9483 22.3141 23.3861C22.9221 23.8239 23.664 24.0428 24.5396 24.0428Z" fill="#2D5B9F"/>
<path d="M41.2563 26.8885L35.8567 6.78598H40.0888L42.7521 17.6581C42.9467 18.631 43.1291 19.5918 43.2994 20.5403C43.4696 21.4646 43.652 22.4132 43.8466 23.3861H44.029C44.2236 22.4132 44.4182 21.4646 44.6128 20.5403C44.8317 19.5918 45.0627 18.631 45.306 17.6581L48.1517 6.78598H52.019L54.9012 17.6581C55.1444 18.631 55.3755 19.5918 55.5944 20.5403C55.8133 21.4646 56.0322 22.4132 56.2511 23.3861H56.4335C56.6281 22.4132 56.8105 21.4646 56.9808 20.5403C57.1753 19.5918 57.3699 18.631 57.5645 17.6581L60.1548 6.78598H64.1316L58.9144 26.8885H53.8796L51.3258 16.9649C51.0826 16.0164 50.8637 15.0678 50.6691 14.1192C50.4745 13.1706 50.2677 12.1856 50.0488 11.164H49.8664C49.6475 12.1856 49.4408 13.1828 49.2462 14.1557C49.0759 15.1043 48.8692 16.0528 48.626 17.0014L46.1451 26.8885H41.2563Z" fill="#2D5B9F"/>
<path d="M88.0353 11.8002C90.9087 13.4591 92.3454 14.2886 92.8276 15.3716C93.2481 16.3161 93.2481 17.3948 92.8276 18.3394C92.3454 19.4224 90.9087 20.2518 88.0352 21.9108L81.605 25.6233C78.7316 27.2823 77.2949 28.1118 76.1159 27.9879C75.0876 27.8798 74.1534 27.3405 73.5457 26.504C72.8489 25.5449 72.8489 23.886 72.8489 20.568V13.143C72.8489 9.82502 72.8489 8.16605 73.5457 7.20702C74.1534 6.37051 75.0876 5.83117 76.1159 5.72309C77.2949 5.59918 78.7316 6.42867 81.605 8.08764L88.0353 11.8002Z" fill="#2D5B9F"/>
<path d="M101.242 26.8885V0H105.584L114.486 15.7975L117.295 21.4524H117.478C117.356 20.0904 117.222 18.631 117.076 17.0744C116.955 15.5178 116.894 14.0098 116.894 12.5504V0H120.944V26.8885H116.602L107.7 11.0546L104.891 5.43608H104.745C104.842 6.82246 104.952 8.26965 105.073 9.77764C105.195 11.2856 105.256 12.7815 105.256 14.2651V26.8885H101.242Z" fill="#2D5B9F"/>
<path d="M134.274 27.3993C132.62 27.3993 131.063 26.9858 129.604 26.1588C128.169 25.3076 127.001 24.1036 126.101 22.5469C125.226 20.966 124.788 19.0688 124.788 16.8555C124.788 14.6178 125.226 12.7207 126.101 11.164C127.001 9.58306 128.169 8.3791 129.604 7.55213C131.063 6.72517 132.62 6.31169 134.274 6.31169C135.49 6.31169 136.67 6.55491 137.813 7.04136C138.956 7.50349 139.965 8.18452 140.841 9.08445C141.717 9.98438 142.41 11.0911 142.92 12.4045C143.431 13.6936 143.687 15.1772 143.687 16.8555C143.687 19.0688 143.237 20.966 142.337 22.5469C141.461 24.1036 140.306 25.3076 138.871 26.1588C137.46 26.9858 135.928 27.3993 134.274 27.3993ZM134.274 23.8969C135.32 23.8969 136.22 23.605 136.974 23.0212C137.752 22.4375 138.348 21.6227 138.761 20.5768C139.175 19.5066 139.382 18.2662 139.382 16.8555C139.382 15.4448 139.175 14.2165 138.761 13.1706C138.348 12.1004 137.752 11.2735 136.974 10.6897C136.22 10.0817 135.32 9.77764 134.274 9.77764C133.204 9.77764 132.279 10.0817 131.501 10.6897C130.747 11.2735 130.163 12.1004 129.75 13.1706C129.336 14.2165 129.13 15.4448 129.13 16.8555C129.13 18.2662 129.336 19.5066 129.75 20.5768C130.163 21.6227 130.747 22.4375 131.501 23.0212C132.279 23.605 133.204 23.8969 134.274 23.8969Z" fill="#2D5B9F"/>
<path d="M150.052 26.8885L144.652 6.78598H148.884L151.548 17.6581C151.742 18.631 151.925 19.5918 152.095 20.5403C152.265 21.4646 152.448 22.4132 152.642 23.3861H152.825C153.019 22.4132 153.214 21.4646 153.408 20.5403C153.627 19.5918 153.858 18.631 154.102 17.6581L156.947 6.78598H160.815L163.697 17.6581C163.94 18.631 164.171 19.5918 164.39 20.5403C164.609 21.4646 164.828 22.4132 165.047 23.3861H165.229C165.424 22.4132 165.606 21.4646 165.776 20.5403C165.971 19.5918 166.166 18.631 166.36 17.6581L168.95 6.78598H172.927L167.71 26.8885H162.675L160.121 16.9649C159.878 16.0164 159.659 15.0678 159.465 14.1192C159.27 13.1706 159.063 12.1856 158.844 11.164H158.662C158.443 12.1856 158.236 13.1828 158.042 14.1557C157.872 15.1043 157.665 16.0528 157.422 17.0014L154.941 26.8885H150.052Z" fill="#2D5B9F"/>
</svg>
