<svg width="19" height="18" viewBox="0 0 19 18" fill="none" xmlns="http://www.w3.org/2000/svg">
<path fill-rule="evenodd" clip-rule="evenodd" d="M17.4624 0C18.2065 0 18.5666 0.910615 18.0238 1.41948L10.7161 8.27046C10.2946 8.66554 10.2946 9.33446 10.7161 9.72954L18.0238 16.5805C18.5666 17.0894 18.2065 18 17.4624 18C17.2539 18 17.0532 17.9206 16.9011 17.778L8.31606 9.72954C7.89465 9.33446 7.89465 8.66554 8.31606 8.27046L16.9011 0.221977C17.0532 0.0793653 17.2539 0 17.4624 0ZM9.46244 0C10.2065 0 10.5666 0.910615 10.0238 1.41948L2.71606 8.27046C2.29465 8.66554 2.29465 9.33446 2.71606 9.72954L10.0238 16.5805C10.5666 17.0894 10.2065 18 9.46244 18C9.25392 18 9.05322 17.9206 8.9011 17.778L0.316057 9.72954C-0.105354 9.33446 -0.105354 8.66554 0.316057 8.27046L8.90111 0.221977C9.05323 0.0793653 9.25393 0 9.46244 0Z" fill="black"/>
</svg>
