<svg width="19" height="18" viewBox="0 0 19 18" fill="none" xmlns="http://www.w3.org/2000/svg">
<path fill-rule="evenodd" clip-rule="evenodd" d="M0.822381 0C0.0783591 0 -0.28174 0.910615 0.261051 1.41948L7.56876 8.27046C7.99018 8.66554 7.99018 9.33446 7.56876 9.72954L0.261055 16.5805C-0.281737 17.0894 0.078363 18 0.822385 18C1.0309 18 1.2316 17.9206 1.38372 17.778L9.96876 9.72954C10.3902 9.33446 10.3902 8.66554 9.96876 8.27046L1.38371 0.221977C1.23159 0.0793653 1.0309 0 0.822381 0ZM8.82238 0C8.07836 0 7.71826 0.910615 8.26105 1.41948L15.5688 8.27046C15.9902 8.66554 15.9902 9.33446 15.5688 9.72954L8.26105 16.5805C7.71826 17.0894 8.07836 18 8.82238 18C9.0309 18 9.2316 17.9206 9.38372 17.778L17.9688 9.72954C18.3902 9.33446 18.3902 8.66554 17.9688 8.27046L9.38371 0.221977C9.23159 0.0793653 9.0309 0 8.82238 0Z" fill="black"/>
</svg>
