<svg width="24" height="25" viewBox="0 0 24 25" fill="none" xmlns="http://www.w3.org/2000/svg">
<path d="M16.543 8.04297C16.8847 7.70124 17.4126 7.65773 17.8008 7.91406L17.957 8.04297L21.707 11.793C22.0976 12.1835 22.0976 12.8165 21.707 13.207L17.957 16.957C17.5665 17.3476 16.9335 17.3476 16.543 16.957C16.1524 16.5665 16.1524 15.9335 16.543 15.543L18.5859 13.5H8.25C7.69772 13.5 7.25 13.0523 7.25 12.5C7.25 11.9477 7.69772 11.5 8.25 11.5H18.5859L16.543 9.45703L16.4141 9.30078C16.1577 8.91262 16.2012 8.3847 16.543 8.04297ZM13.25 8.75V6.875C13.25 6.76375 13.1782 6.55666 12.8965 6.33594C12.6186 6.11833 12.269 6 12 6H4.875C4.64294 6 4.41995 6.09176 4.25586 6.25586C4.09176 6.41995 4 6.64294 4 6.875V18.125L4.01758 18.2969C4.05126 18.4649 4.13291 18.6212 4.25586 18.7441C4.41995 18.9082 4.64294 19 4.875 19H12.375C12.6071 19 12.83 18.9082 12.9941 18.7441C13.1582 18.58 13.25 18.3571 13.25 18.125V16.25C13.25 15.6977 13.6977 15.25 14.25 15.25C14.8023 15.25 15.25 15.6977 15.25 16.25V18.125C15.25 18.8875 14.9474 19.619 14.4082 20.1582C13.869 20.6974 13.1375 21 12.375 21H4.875C4.1125 21 3.38096 20.6974 2.8418 20.1582C2.36979 19.6862 2.07883 19.0667 2.01367 18.4082L2 18.125V6.875C2 6.1125 2.30263 5.38096 2.8418 4.8418C3.38096 4.30263 4.1125 4 4.875 4H12C12.7664 4 13.5426 4.30081 14.1309 4.76172C14.7152 5.21965 15.25 5.95097 15.25 6.875V8.75C15.25 9.30228 14.8023 9.75 14.25 9.75C13.6977 9.75 13.25 9.30228 13.25 8.75Z" fill="#333333"/>
</svg>
