<svg width="24" height="25" viewBox="0 0 24 25" fill="none" xmlns="http://www.w3.org/2000/svg">
<path fill-rule="evenodd" clip-rule="evenodd" d="M12.0001 4.5C11.7349 4.5 11.4805 4.60536 11.293 4.79289C11.1054 4.98043 11.0001 5.23478 11.0001 5.5C11.0001 5.88669 10.7771 6.23873 10.4276 6.40403C9.44321 6.86948 8.60408 7.59402 8.00009 8.5C7.40028 9.39972 7.05484 10.4447 7.00009 11.5244V14.5C7.00009 14.5402 6.99767 14.5803 6.99285 14.6202C6.91259 15.2832 6.70049 15.9222 6.37031 16.5H10.0001C10.5524 16.5 11.0001 16.9477 11.0001 17.5C11.0001 18.0523 10.5524 18.5 10.0001 18.5C10.0001 19.4372 10.6457 20.2266 11.5195 20.4421C12.0557 20.5743 12.3832 21.1162 12.251 21.6524C12.1188 22.1886 11.5769 22.5161 11.0407 22.3839C9.29445 21.9534 8.00009 20.3788 8.00009 18.5H4.00009C3.54593 18.5 3.14881 18.194 3.03309 17.7548C2.91738 17.3156 3.11214 16.8536 3.50734 16.6298C3.91604 16.3984 4.2647 16.0742 4.52523 15.6834C4.7754 15.3082 4.93762 14.8815 5.00009 14.4353V11.5C5.00009 11.4844 5.00046 11.4687 5.00119 11.4531C5.06926 10.0029 5.53068 8.59857 6.33599 7.3906C7.03645 6.33991 7.97412 5.47224 9.07008 4.85572C9.19216 4.30059 9.47057 3.78688 9.87877 3.37868C10.4414 2.81607 11.2044 2.5 12.0001 2.5C12.7957 2.5 13.5588 2.81607 14.1214 3.37868C14.5296 3.78688 14.808 4.30059 14.9301 4.85572C16.0261 5.47224 16.9637 6.33991 17.6642 7.3906C18.4695 8.59857 18.9309 10.0029 18.999 11.4531C19.0249 12.0048 18.5987 12.473 18.047 12.4989C17.4953 12.5248 17.0271 12.0986 17.0012 11.5469C16.9501 10.4592 16.6041 9.40598 16.0001 8.5C15.3961 7.59402 14.557 6.86948 13.5726 6.40403C13.223 6.23873 13.0001 5.88669 13.0001 5.5C13.0001 5.23478 12.8947 4.98043 12.7072 4.79289C12.5197 4.60536 12.2653 4.5 12.0001 4.5ZM13.9549 15.4151C14.5611 14.8265 15.3733 14.498 16.2182 14.4996C16.858 14.5008 17.4783 14.6913 18.0039 15.0402C18.5314 14.6924 19.1531 14.5039 19.7937 14.5051C20.639 14.5067 21.4501 14.8386 22.0541 15.4299C22.3543 15.7232 22.5927 16.0736 22.7553 16.4606C22.918 16.8476 23.0014 17.2633 23.0007 17.6832C23 18.103 22.9152 18.5185 22.7513 18.905C22.5878 19.2908 22.3487 19.6399 22.0482 19.9319C22.0477 19.9325 22.0471 19.9331 22.0465 19.9337L18.7001 23.2141C18.311 23.5956 17.688 23.5953 17.2993 23.2134L13.9461 19.9192C13.9458 19.9188 13.9454 19.9185 13.9451 19.9181C13.6453 19.6249 13.4073 19.2746 13.245 18.888C13.0825 18.5009 12.9992 18.0851 13 17.6653C13.0008 17.2454 13.0857 16.83 13.2497 16.4436C13.4138 16.0571 13.6535 15.7074 13.9549 15.4151ZM16.2144 16.4996C15.8909 16.499 15.58 16.6248 15.3479 16.8502L15.3473 16.8509C15.2377 16.9572 15.1505 17.0843 15.0908 17.2249C15.0312 17.3654 15.0003 17.5165 15 17.6692C14.9997 17.8219 15.03 17.9731 15.0891 18.1138C15.1482 18.2546 15.2349 18.3821 15.3441 18.4888L15.3459 18.4906L18.0008 21.0989L20.6501 18.5019L20.6537 18.4983C20.7633 18.392 20.8504 18.2648 20.91 18.1243C20.9696 17.9837 21.0005 17.8326 21.0007 17.6799C21.001 17.5272 20.9706 17.3761 20.9115 17.2353C20.8523 17.0946 20.7656 16.9671 20.6564 16.8604L20.6553 16.8593C20.4241 16.6328 20.1135 16.5057 19.7899 16.5051C19.467 16.5045 19.1566 16.6298 18.9248 16.8544C18.9242 16.855 18.9237 16.8555 18.9232 16.856L18.7028 17.0724C18.3132 17.4551 17.6886 17.4544 17.2998 17.0709L17.0795 16.8535C17.0791 16.8532 17.0788 16.8528 17.0784 16.8525C16.8474 16.6268 16.5374 16.5002 16.2144 16.4996Z" fill="#333333"/>
</svg>
