<svg width="60" height="60" viewBox="0 0 60 60" fill="none" xmlns="http://www.w3.org/2000/svg">
<path d="M45 20C45 16.0218 43.4196 12.2064 40.6066 9.3934C37.7936 6.58035 33.9782 5 30 5C26.0218 5 22.2064 6.58035 19.3934 9.3934C16.5804 12.2064 15 16.0218 15 20C15 37.5 7.5 42.5 7.5 42.5H52.5C52.5 42.5 45 37.5 45 20Z" stroke="#162D50" stroke-width="2" stroke-linecap="round" stroke-linejoin="round"/>
<path d="M34.3258 52.5C33.8863 53.2577 33.2554 53.8866 32.4963 54.3238C31.7373 54.761 30.8767 54.9911 30.0008 54.9911C29.1248 54.9911 28.2643 54.761 27.5052 54.3238C26.7462 53.8866 26.1153 53.2577 25.6758 52.5" stroke="#162D50" stroke-width="2" stroke-linecap="round" stroke-linejoin="round"/>
</svg>
