<svg width="16" height="18" viewBox="0 0 16 18" fill="none" xmlns="http://www.w3.org/2000/svg">
<path fill-rule="evenodd" clip-rule="evenodd" d="M15.2909 14.3858C14.7652 12.9212 14.122 10.46 14.0153 7.00206C14.0137 6.94897 14.0081 6.89683 13.9987 6.84594C13.9452 3.5731 12.1833 0 8 0C3.56918 0 2.04683 3.57382 2.00107 6.84692C1.99186 6.8975 1.9863 6.94932 1.98468 7.00206C1.87798 10.46 1.23479 12.9212 0.709093 14.3858C0.446495 15.1174 0.988895 16 1.76619 16H5.17071C5.58255 17.1652 6.69378 18 8 18C9.30622 18 10.4175 17.1652 10.8293 16H14.2338C15.0111 16 15.5535 15.1174 15.2909 14.3858ZM2.25672 14.5C2.79631 12.8815 3.3769 10.4076 3.4829 7.08212L3.49918 6.99271L3.50092 6.86789C3.52113 5.42231 3.87064 4.04623 4.57242 3.07391C5.22262 2.17307 6.2526 1.5 8 1.5C9.60038 1.5 10.6475 2.15521 11.3451 3.09169C12.0831 4.08253 12.476 5.46539 12.4989 6.87046L12.501 6.99431L12.5171 7.08245C12.6231 10.4078 13.2037 12.8816 13.7433 14.5H2.25672ZM9.11805 16H6.88195C7.15661 16.3069 7.55575 16.5 8 16.5C8.44425 16.5 8.84339 16.3069 9.11805 16Z" fill="black"/>
</svg>
