<svg xmlns="http://www.w3.org/2000/svg" width="18" height="18" viewBox="0 0 18 18" fill="none">
    <path d="M6 3C6.1837 3.00002 6.361 3.06747 6.49828 3.18954C6.63556 3.31161 6.72326 3.47981 6.74475 3.66225L6.75 3.75V14.25C6.74979 14.4412 6.67659 14.625 6.54536 14.764C6.41414 14.903 6.23479 14.9867 6.04395 14.9979C5.85312 15.0091 5.66522 14.947 5.51863 14.8243C5.37204 14.7016 5.27783 14.5276 5.25525 14.3377L5.25 14.25V3.75C5.25 3.55109 5.32902 3.36032 5.46967 3.21967C5.61032 3.07902 5.80109 3 6 3ZM12 3C12.1837 3.00002 12.361 3.06747 12.4983 3.18954C12.6356 3.31161 12.7233 3.47981 12.7447 3.66225L12.75 3.75V14.25C12.7498 14.4412 12.6766 14.625 12.5454 14.764C12.4141 14.903 12.2348 14.9867 12.044 14.9979C11.8531 15.0091 11.6652 14.947 11.5186 14.8243C11.372 14.7016 11.2778 14.5276 11.2552 14.3377L11.25 14.25V3.75C11.25 3.55109 11.329 3.36032 11.4697 3.21967C11.6103 3.07902 11.8011 3 12 3Z" fill="black"/>
</svg>