<svg width="18" height="18" viewBox="0 0 18 18" fill="none" xmlns="http://www.w3.org/2000/svg">
<path d="M14.25 6C14.25 8.8995 11.8995 11.25 9 11.25C6.10051 11.25 3.75 8.8995 3.75 6C3.75 3.10051 6.10051 0.75 9 0.75C11.8995 0.75 14.25 3.10051 14.25 6ZM2.3779 14.4812C3.78217 13.662 5.17944 13.6763 7.35957 13.7259L7.36276 13.726C7.87 13.7376 8.41588 13.75 9 13.75C9.58408 13.75 10.1299 13.7376 10.6371 13.726L10.6404 13.7259C12.8205 13.6763 14.2178 13.662 15.6221 14.4812C16.5785 15.0391 16.9941 16.2027 17.159 17.1371C17.1625 17.1564 17.1601 17.1662 17.1587 17.1707C17.1569 17.1765 17.1527 17.1857 17.1422 17.1971C17.1201 17.2209 17.0725 17.25 17 17.25H1C0.927458 17.25 0.879886 17.2209 0.857812 17.1971C0.847275 17.1857 0.843052 17.1765 0.841277 17.1707C0.839878 17.1662 0.837531 17.1564 0.84095 17.1371C1.00594 16.2027 1.42151 15.0391 2.3779 14.4812Z" stroke="black" stroke-width="1.5"/>
</svg>
