<svg width="18" height="18" viewBox="0 0 18 18" fill="none" xmlns="http://www.w3.org/2000/svg">
<path fill-rule="evenodd" clip-rule="evenodd" d="M12.4772 13.7582C11.2146 14.645 9.66804 15.1514 8.00718 15.1151C3.86604 15.0245 0.582419 11.594 0.673017 7.45282C0.763614 3.31168 4.19412 0.0280592 8.33526 0.118657C12.4764 0.209254 15.76 3.63976 15.6694 7.7809C15.6259 9.77205 14.8102 11.5649 13.5146 12.8798L17.3398 16.8089C17.6011 17.0772 17.5982 17.5094 17.3334 17.7742C17.0686 18.039 16.6421 18.0362 16.3809 17.7678L12.4772 13.7582ZM14.1698 7.7481C14.0973 11.061 11.3529 13.6879 8.03999 13.6154C4.72707 13.5429 2.10018 10.7985 2.17266 7.48563C2.24514 4.17271 4.98954 1.54582 8.30245 1.6183C11.6154 1.69078 14.2423 4.43518 14.1698 7.7481Z" fill="black"/>
</svg>
