<svg xmlns="http://www.w3.org/2000/svg" width="44" height="44" viewBox="0 0 24 24" fill="none">
  <path d="M11.9996 18.0795L7.6369 20.8312C7.44417 20.9596 7.24268 21.0147 7.03243 20.9963C6.82219 20.978 6.63822 20.9046 6.48053 20.7762C6.32285 20.6478 6.2002 20.4874 6.1126 20.2952C6.02499 20.1029 6.00747 19.8872 6.06003 19.648L7.2164 14.4472L3.35309 10.9525C3.17788 10.7874 3.06855 10.5992 3.0251 10.3878C2.98165 10.1765 2.99461 9.97032 3.064 9.76926C3.13338 9.5682 3.2385 9.40309 3.37937 9.27394C3.52023 9.1448 3.71296 9.06225 3.95755 9.02629L9.05607 8.5585L11.0272 3.66042C11.1148 3.44028 11.2507 3.27517 11.435 3.1651C11.6194 3.05503 11.8075 3 11.9996 3C12.1916 3 12.3798 3.05503 12.5641 3.1651C12.7484 3.27517 12.8843 3.44028 12.972 3.66042L14.943 8.5585L20.0416 9.02629C20.2868 9.06298 20.4796 9.14553 20.6197 9.27394C20.7599 9.40236 20.865 9.56746 20.9351 9.76926C21.0052 9.97105 21.0185 10.1776 20.9751 10.3889C20.9316 10.6003 20.8219 10.7881 20.646 10.9525L16.7827 14.4472L17.9391 19.648C17.9916 19.8865 17.9741 20.1022 17.8865 20.2952C17.7989 20.4882 17.6763 20.6485 17.5186 20.7762C17.3609 20.9039 17.1769 20.9772 16.9667 20.9963C16.7564 21.0154 16.5549 20.9604 16.3622 20.8312L11.9996 18.0795Z" fill="#FFDD33"/>
</svg>
