<svg width="24" height="25" viewBox="0 0 24 25" fill="none" xmlns="http://www.w3.org/2000/svg">
<path d="M13.6602 1.74971C14.2191 1.74266 14.7646 1.92638 15.2051 2.27119L15.3653 2.40986C15.7239 2.74526 15.9749 3.18431 16.0742 3.67158L16.3418 4.96455C16.4023 4.99748 16.4618 5.03187 16.5215 5.06611L17.832 4.63643H17.836L18.082 4.57002C18.3318 4.51653 18.5886 4.50167 18.8438 4.52705C19.0988 4.55243 19.3479 4.61688 19.582 4.71846L19.8106 4.83174L19.8125 4.83369L20.0762 5.00557C20.3279 5.19457 20.5402 5.42981 20.7012 5.69502L22.3809 8.47041L22.4883 8.65596C22.7174 9.09876 22.8007 9.60486 22.7246 10.1013C22.6379 10.6669 22.3475 11.1797 21.9102 11.5485L21.9121 11.5505L20.8867 12.4216V12.5817L21.8848 13.4704L22.0391 13.613C22.3868 13.96 22.6194 14.4083 22.7012 14.8962C22.7937 15.4488 22.6851 16.0147 22.3985 16.4958L22.4004 16.4978L20.7656 19.2907L20.7617 19.2946C20.5449 19.66 20.2362 19.9624 19.8653 20.1696L19.8613 20.1716C19.587 20.3233 19.2875 20.4218 18.9785 20.4626L18.666 20.4841C18.407 20.4856 18.1495 20.4464 17.9024 20.3688L17.8887 20.3649L16.584 19.9333C16.5232 19.9679 16.462 20.0016 16.4004 20.0349L16.1328 21.3278C16.0169 21.8832 15.7074 22.3815 15.2598 22.7302C14.8201 23.0737 14.2764 23.2544 13.7188 23.2478L10.332 23.2497C9.84417 23.2556 9.3672 23.1163 8.96095 22.8513L8.78908 22.7282C8.39831 22.4226 8.11284 22.0047 7.97072 21.5329L7.91994 21.3278L7.64845 20.0329C7.58884 20.0003 7.52966 19.9671 7.47072 19.9333L6.16408 20.3649L6.15041 20.3688C5.96497 20.4271 5.77354 20.4643 5.5801 20.4782L5.38478 20.4841C4.96743 20.4811 4.55661 20.3737 4.19142 20.1716L4.18947 20.1696C3.81884 19.9631 3.5082 19.663 3.29103 19.2985L1.60158 16.5095L1.60353 16.5075C1.30455 16.0221 1.18833 15.4454 1.28127 14.8825C1.36779 14.3596 1.62886 13.8836 2.0176 13.5271L2.98244 12.3063L2.084 11.5075L2.08595 11.5056C1.66633 11.1453 1.38473 10.6513 1.29299 10.1052C1.19959 9.54813 1.30787 8.97551 1.59963 8.49189L1.60158 8.48994L3.28908 5.70479L3.46877 5.44307C3.6647 5.19434 3.90928 4.98521 4.18752 4.82979L4.18947 4.82783L4.47267 4.69502C4.74399 4.58653 5.0328 4.52799 5.32619 4.51924C5.33307 4.5188 5.34079 4.51766 5.34767 4.51729C5.35938 4.51704 5.37111 4.51542 5.38283 4.51533C5.49306 4.51085 5.60329 4.51308 5.71291 4.52314L6.09181 4.5876L6.13674 4.59932L6.1797 4.61494L7.44728 5.0583C7.50484 5.02567 7.56289 4.994 7.62111 4.9626L7.89064 3.67158L7.94338 3.4665C8.08545 2.99559 8.36984 2.57849 8.75978 2.27314C9.20023 1.92834 9.74579 1.74463 10.3047 1.75166L13.6602 1.74971ZM10.1309 3.77314C10.0816 3.78948 10.0357 3.81487 9.99416 3.84736C9.95771 3.87594 9.92455 3.91023 9.90041 3.94893L9.84963 4.07783L9.38088 6.32588L8.9297 6.53877C8.64163 6.67444 8.36264 6.82781 8.09377 6.99971L7.68361 7.26338L7.22463 7.10127L5.58986 6.52705C5.54483 6.51728 5.49918 6.5105 5.45314 6.51338L5.4258 6.51533H5.3965C5.31412 6.51603 5.23245 6.53637 5.16017 6.57588C5.09789 6.61095 5.04641 6.66292 5.00978 6.72432L5.00392 6.73408L3.31056 9.52314L3.31252 9.5251C3.26759 9.59952 3.24951 9.68739 3.26369 9.77314C3.27088 9.81602 3.28736 9.85709 3.30861 9.89424L3.39064 9.99385L3.40236 10.0036L3.41408 10.0153L4.7715 11.2224L5.10549 11.5212V12.8474L4.89064 13.1208L3.53517 14.8317L3.46877 14.9177L3.38478 14.986C3.31607 15.0422 3.26845 15.1212 3.25392 15.2087C3.24672 15.2523 3.24935 15.2969 3.25783 15.3396L3.3047 15.4626L3.31252 15.4743L5.00588 18.2673L5.00978 18.2751L5.07619 18.3591C5.1012 18.3834 5.12958 18.4042 5.16017 18.4216L5.27541 18.4685C5.31537 18.4789 5.35682 18.4838 5.39845 18.4841L5.54689 18.4606L7.73049 17.7419L8.13088 17.9978C8.26523 18.0837 8.40184 18.1661 8.54103 18.2438L8.96681 18.4646L9.41017 18.6794L9.51174 19.1618L9.87697 20.9216L9.9297 21.0505C9.95396 21.0894 9.98481 21.1253 10.0215 21.154L10.1582 21.2263C10.2074 21.2427 10.2599 21.2508 10.3125 21.2497H13.7383L13.8926 21.2263C13.9413 21.2099 13.9882 21.1862 14.0293 21.154L14.0313 21.1521L14.1231 21.0485C14.1471 21.0098 14.1643 20.9669 14.1738 20.9216L14.6406 18.6735L15.0938 18.4606C15.3821 18.3253 15.659 18.1709 15.9258 17.9997L16.3262 17.7438L16.7793 17.8923L18.5039 18.4606C18.5527 18.4757 18.6032 18.4844 18.6543 18.4841L18.7774 18.4685C18.8175 18.458 18.856 18.4418 18.8926 18.4216C18.9528 18.3873 19.0029 18.3381 19.0391 18.279L20.6738 15.486L20.6817 15.4743L20.7266 15.3552C20.7347 15.3129 20.7358 15.2694 20.7285 15.2263C20.7141 15.1403 20.6704 15.0614 20.6035 15.0056L20.5899 14.9958L20.5781 14.986L19.2227 13.7771L18.8867 13.4802V11.4997L19.2383 11.2009L20.6153 10.0271L20.6211 10.0231L20.7051 9.92158C20.7264 9.88371 20.7413 9.84217 20.7481 9.79854C20.7615 9.71111 20.7428 9.62118 20.6953 9.54658L20.6817 9.52705L18.9903 6.73213C18.9497 6.66555 18.8935 6.6109 18.8281 6.57393C18.7724 6.54297 18.71 6.52371 18.6465 6.51728C18.5825 6.51091 18.5164 6.51522 18.4551 6.53486L18.457 6.53682L16.7129 7.10908L16.2598 7.25947L15.8594 6.99971C15.5936 6.82806 15.3175 6.67337 15.0313 6.53682L14.582 6.32393L14.4824 5.8376L14.1153 4.07783V4.07197C14.107 4.03077 14.0904 3.98944 14.0664 3.95088L13.9707 3.84736C13.8881 3.78273 13.7865 3.74754 13.6817 3.74971H10.2832L10.1309 3.77314Z" fill="#333333"/>
<path d="M14.75 12.5C14.75 11.7707 14.461 11.0704 13.9453 10.5547C13.4296 10.039 12.7293 9.75 12 9.75C11.2707 9.75 10.5704 10.039 10.0547 10.5547C9.53896 11.0704 9.25 11.7707 9.25 12.5L9.26367 12.7715C9.32612 13.4011 9.60336 13.994 10.0547 14.4453C10.5704 14.961 11.2707 15.25 12 15.25C12.7293 15.25 13.4296 14.961 13.9453 14.4453C14.461 13.9296 14.75 13.2293 14.75 12.5ZM16.75 12.5C16.75 13.7598 16.2502 14.9686 15.3594 15.8594C14.4686 16.7502 13.2598 17.25 12 17.25C10.7402 17.25 9.53142 16.7502 8.64062 15.8594C7.86101 15.0798 7.38127 14.0564 7.27344 12.9688L7.25 12.5C7.25 11.2402 7.74983 10.0314 8.64062 9.14062C9.53142 8.24983 10.7402 7.75 12 7.75C13.2598 7.75 14.4686 8.24983 15.3594 9.14062C16.2502 10.0314 16.75 11.2402 16.75 12.5Z" fill="#333333"/>
</svg>
