<svg xmlns="http://www.w3.org/2000/svg" width="23" height="29" viewBox="0 0 23 29" fill="none">
  <path fill-rule="evenodd" clip-rule="evenodd" d="M10.3661 1.11612C10.8543 0.627961 11.6457 0.627961 12.1339 1.11612L17.1339 6.11612C17.622 6.60427 17.622 7.39573 17.1339 7.88388C16.6457 8.37204 15.8543 8.37204 15.3661 7.88388L12.5 5.01777V18.25C12.5 18.9404 11.9404 19.5 11.25 19.5C10.5596 19.5 10 18.9404 10 18.25V5.01777L7.13388 7.88388C6.64573 8.37204 5.85427 8.37204 5.36612 7.88388C4.87796 7.39573 4.87796 6.60427 5.36612 6.11612L10.3661 1.11612ZM1.25 13.25C1.94036 13.25 2.5 13.8096 2.5 14.5V24.5C2.5 24.8315 2.6317 25.1495 2.86612 25.3839C3.10054 25.6183 3.41848 25.75 3.75 25.75H18.75C19.0815 25.75 19.3995 25.6183 19.6339 25.3839C19.8683 25.1495 20 24.8315 20 24.5V14.5C20 13.8096 20.5596 13.25 21.25 13.25C21.9404 13.25 22.5 13.8096 22.5 14.5V24.5C22.5 25.4946 22.1049 26.4484 21.4017 27.1517C20.6984 27.8549 19.7446 28.25 18.75 28.25H3.75C2.75544 28.25 1.80161 27.8549 1.09835 27.1517C0.395088 26.4484 0 25.4946 0 24.5V14.5C0 13.8096 0.559644 13.25 1.25 13.25Z" fill="#999999"/>
</svg>