<svg xmlns="http://www.w3.org/2000/svg" width="44" height="44" viewBox="0 0 44 44" fill="none">
  <path d="M15.9283 32.2376L21.9992 28.4036L28.0701 32.2881L26.4801 25.0235L31.8283 20.1805L24.7937 19.5247L21.9992 12.6637L19.2046 19.4742L12.1701 20.13L17.5183 25.0235L15.9283 32.2376ZM21.9992 33.1457L14.001 38.1906C13.6476 38.426 13.2783 38.5269 12.8928 38.4932C12.5073 38.4596 12.1701 38.3251 11.881 38.0897C11.5919 37.8542 11.367 37.5603 11.2064 37.2078C11.0458 36.8554 11.0137 36.4598 11.1101 36.0213L13.2301 26.4865L6.14733 20.0796C5.82611 19.7769 5.62568 19.4318 5.54602 19.0444C5.46635 18.6569 5.49012 18.2789 5.61732 17.9103C5.74452 17.5417 5.93725 17.239 6.19551 17.0022C6.45376 16.7655 6.8071 16.6141 7.25551 16.5482L16.6028 15.6906L20.2164 6.71076C20.3771 6.30717 20.6263 6.00448 20.9642 5.80269C21.3021 5.6009 21.6471 5.5 21.9992 5.5C22.3512 5.5 22.6962 5.6009 23.0341 5.80269C23.372 6.00448 23.6213 6.30717 23.7819 6.71076L27.3956 15.6906L36.7428 16.5482C37.1925 16.6155 37.5459 16.7668 37.8028 17.0022C38.0598 17.2377 38.2525 17.5404 38.381 17.9103C38.5095 18.2803 38.5339 18.659 38.4543 19.0464C38.3746 19.4338 38.1735 19.7782 37.851 20.0796L30.7683 26.4865L32.8883 36.0213C32.9847 36.4585 32.9525 36.854 32.7919 37.2078C32.6313 37.5616 32.4065 37.8556 32.1174 38.0897C31.8283 38.3237 31.491 38.4583 31.1056 38.4932C30.7201 38.5282 30.3507 38.4273 29.9974 38.1906L21.9992 33.1457Z" fill="currentColor"/>
</svg>