<svg xmlns="http://www.w3.org/2000/svg" width="30" height="30" viewBox="0 0 30 30" fill="none">
  <g clip-path="url(#clip0_1948_1800)">
    <path d="M9.48023 24.307L14.9993 20.8214L20.5183 24.3528L19.0728 17.7487L23.9348 13.3459L17.5398 12.7497L14.9993 6.51243L12.4588 12.7038L6.0637 13.3L10.9257 17.7487L9.48023 24.307ZM14.9993 25.1325L7.72816 29.7187C7.40695 29.9327 7.07114 30.0244 6.72072 29.9939C6.37031 29.9633 6.0637 29.841 5.80089 29.627C5.53808 29.4129 5.33367 29.1457 5.18766 28.8253C5.04166 28.5049 5.01245 28.1453 5.10006 27.7466L7.02733 19.0787L0.588478 13.2542C0.296466 12.979 0.114251 12.6653 0.0418321 12.3131C-0.0305868 11.9609 -0.00897807 11.6172 0.106659 11.2821C0.222295 10.947 0.397502 10.6718 0.632279 10.4566C0.867057 10.2413 1.18827 10.1037 1.59592 10.0438L10.0935 9.26416L13.3786 1.10069C13.5246 0.733795 13.7512 0.458621 14.0584 0.275173C14.3656 0.0917241 14.6792 0 14.9993 0C15.3193 0 15.6329 0.0917241 15.9401 0.275173C16.2473 0.458621 16.4739 0.733795 16.6199 1.10069L19.9051 9.26416L28.4026 10.0438C28.8114 10.105 29.1326 10.2426 29.3662 10.4566C29.5998 10.6706 29.775 10.9458 29.8918 11.2821C30.0087 11.6184 30.0308 11.9627 29.9584 12.3149C29.886 12.6671 29.7032 12.9802 29.41 13.2542L22.9712 19.0787L24.8984 27.7466C24.9861 28.1441 24.9569 28.5036 24.8108 28.8253C24.6648 29.1469 24.4604 29.4142 24.1976 29.627C23.9348 29.8398 23.6282 29.9621 23.2778 29.9939C22.9274 30.0257 22.5916 29.9339 22.2703 29.7187L14.9993 25.1325Z" fill="#999999"/>
  </g>
  <defs>
    <clipPath id="clip0_1948_1800">
      <rect width="30" height="30" fill="white"/>
    </clipPath>
  </defs>
</svg>